<svg xmlns="http://www.w3.org/2000/svg" xmlns:xlink="http://www.w3.org/1999/xlink" width="1000" zoomAndPan="magnify" viewBox="0 0 750 749.999995" height="1000" preserveAspectRatio="xMidYMid meet" version="1.0"><defs><g/><clipPath id="79da723bb8"><path d="M 33.75 0 L 716.25 0 C 734.890625 0 750 15.109375 750 33.75 L 750 716.25 C 750 734.890625 734.890625 750 716.25 750 L 33.75 750 C 15.109375 750 0 734.890625 0 716.25 L 0 33.75 C 0 15.109375 15.109375 0 33.75 0 Z M 33.75 0 " clip-rule="nonzero"/></clipPath><clipPath id="b83ff197d8"><path d="M 0 0 L 750 0 L 750 750 L 0 750 Z M 0 0 " clip-rule="nonzero"/></clipPath><clipPath id="8aa422aa5f"><path d="M 33.75 0 L 716.25 0 C 734.890625 0 750 15.109375 750 33.75 L 750 716.25 C 750 734.890625 734.890625 750 716.25 750 L 33.75 750 C 15.109375 750 0 734.890625 0 716.25 L 0 33.75 C 0 15.109375 15.109375 0 33.75 0 Z M 33.75 0 " clip-rule="nonzero"/></clipPath><clipPath id="e738d21856"><rect x="0" width="750" y="0" height="750"/></clipPath><clipPath id="6468366e3f"><rect x="0" width="700" y="0" height="567"/></clipPath></defs><g clip-path="url(#79da723bb8)"><g transform="matrix(1, 0, 0, 1, 0, -0.000000000000042435)"><g clip-path="url(#e738d21856)"><g clip-path="url(#b83ff197d8)"><g clip-path="url(#8aa422aa5f)"><rect x="-165" width="1080" fill="#000000" height="1079.999992" y="-164.999999" fill-opacity="1"/></g></g></g></g></g><g transform="matrix(1, 0, 0, 1, 25, 91)"><g clip-path="url(#6468366e3f)"><g fill="#ffe154" fill-opacity="1"><g transform="translate(0.551091, 448.590437)"><g><path d="M 74.5625 0 L 37.75 0 L 164.21875 -286.453125 L 14.15625 -286.453125 L 14.15625 -319.484375 L 215.65625 -319.484375 Z M 74.5625 0 "/></g></g></g><g fill="#ffe154" fill-opacity="1"><g transform="translate(209.60668, 448.590437)"><g><path d="M 124.109375 -163.28125 C 105.234375 -163.28125 89.191406 -156.832031 75.984375 -143.9375 C 62.765625 -131.351562 56.15625 -115.617188 56.15625 -96.734375 C 56.15625 -78.171875 62.601562 -62.128906 75.5 -48.609375 C 88.40625 -35.078125 104.609375 -28.3125 124.109375 -28.3125 C 143.617188 -28.3125 159.820312 -35.078125 172.71875 -48.609375 C 185.613281 -62.128906 192.0625 -78.171875 192.0625 -96.734375 C 192.0625 -115.617188 185.613281 -131.351562 172.71875 -143.9375 C 159.1875 -156.832031 142.984375 -163.28125 124.109375 -163.28125 Z M 124.109375 -293.53125 C 108.691406 -293.53125 95.632812 -288.492188 84.9375 -278.421875 C 73.925781 -268.046875 68.421875 -255.304688 68.421875 -240.203125 C 68.421875 -225.410156 73.925781 -212.507812 84.9375 -201.5 C 95.632812 -190.800781 108.691406 -185.453125 124.109375 -185.453125 C 139.523438 -185.453125 152.582031 -190.800781 163.28125 -201.5 C 174.289062 -212.507812 179.796875 -225.410156 179.796875 -240.203125 C 179.796875 -255.304688 174.289062 -268.046875 163.28125 -278.421875 C 152.582031 -288.492188 139.523438 -293.53125 124.109375 -293.53125 Z M 124.109375 4.71875 C 94.535156 4.71875 69.835938 -4.085938 50.015625 -21.703125 C 29.253906 -39.328125 18.875 -62.609375 18.875 -91.546875 C 18.875 -107.273438 23.59375 -122.691406 33.03125 -137.796875 C 42.15625 -152.578125 55.367188 -164.691406 72.671875 -174.140625 C 47.191406 -195.210938 34.453125 -218.175781 34.453125 -243.03125 C 34.453125 -267.570312 43.257812 -287.707031 60.875 -303.4375 C 77.550781 -318.539062 98.628906 -326.09375 124.109375 -326.09375 C 149.585938 -326.09375 170.820312 -318.539062 187.8125 -303.4375 C 205.125 -287.707031 213.78125 -267.414062 213.78125 -242.5625 C 213.78125 -218.019531 201.035156 -195.210938 175.546875 -174.140625 C 192.847656 -164.691406 206.21875 -152.578125 215.65625 -137.796875 C 224.78125 -122.691406 229.34375 -107.59375 229.34375 -92.5 C 229.34375 -77.082031 226.671875 -63.550781 221.328125 -51.90625 C 215.660156 -39.957031 208.109375 -29.890625 198.671875 -21.703125 C 178.535156 -4.085938 153.679688 4.71875 124.109375 4.71875 Z M 124.109375 4.71875 "/></g></g></g><g fill="#ffe154" fill-opacity="1"><g transform="translate(457.830744, 448.590437)"><g><path d="M 120.34375 -145.8125 C 130.40625 -145.8125 140 -147.859375 149.125 -151.953125 C 158.25 -155.722656 166.269531 -160.914062 173.1875 -167.53125 C 187.976562 -182 195.375 -199.144531 195.375 -218.96875 C 195.375 -239.414062 187.976562 -256.875 173.1875 -271.34375 C 158.082031 -285.8125 140.46875 -293.046875 120.34375 -293.046875 C 99.570312 -293.046875 82.109375 -285.96875 67.953125 -271.8125 C 53.484375 -257.34375 46.25 -240.195312 46.25 -220.375 C 46.25 -200.238281 53.484375 -182.78125 67.953125 -168 C 82.109375 -153.207031 99.570312 -145.8125 120.34375 -145.8125 Z M 12.734375 -218.015625 C 12.734375 -233.742188 15.566406 -248.0625 21.234375 -260.96875 C 26.898438 -273.863281 34.609375 -285.1875 44.359375 -294.9375 C 65.117188 -315.707031 90.601562 -326.09375 120.8125 -326.09375 C 150.382812 -326.09375 175.863281 -315.707031 197.25 -294.9375 C 218.332031 -274.175781 228.875 -248.851562 228.875 -218.96875 C 228.875 -193.164062 220.851562 -170.671875 204.8125 -151.484375 L 79.28125 0 L 35.859375 0 L 134.015625 -117.96875 L 124.578125 -111.84375 C 92.492188 -113.101562 66.226562 -123.015625 45.78125 -141.578125 C 23.75 -161.390625 12.734375 -186.867188 12.734375 -218.015625 Z M 12.734375 -218.015625 "/></g></g></g></g></g></svg>