<svg xmlns="http://www.w3.org/2000/svg" xmlns:xlink="http://www.w3.org/1999/xlink" width="1520" zoomAndPan="magnify" viewBox="0 0 1140 809.999993" height="1080" preserveAspectRatio="xMidYMid meet" version="1.0"><path fill="#000000" d="M 588.484375 132.996094 C 586.582031 133.40625 580.929688 134.605469 575.921875 135.660156 C 563.894531 138.195312 555.578125 141.1875 543.910156 147.167969 C 531.300781 153.632812 523.304688 159.742188 511.632812 171.835938 C 503.933594 179.816406 500.976562 183.554688 496.546875 190.917969 C 491.050781 200.0625 486.605469 209.054688 484.769531 214.738281 C 484.238281 216.390625 483.503906 218.121094 483.140625 218.582031 C 482.777344 219.042969 482.699219 219.640625 482.964844 219.90625 C 483.234375 220.175781 483.105469 220.835938 482.679688 221.375 C 482.253906 221.910156 481.875 222.871094 481.839844 223.503906 C 481.800781 224.136719 481.273438 226.390625 480.671875 228.507812 C 479.230469 233.558594 477.855469 246.4375 477.859375 254.832031 C 477.863281 268.425781 479.257812 278.046875 482.804688 288.996094 C 488.613281 306.90625 494.21875 317.070312 505.949219 330.941406 C 509.300781 334.902344 512.347656 338.550781 512.71875 339.050781 C 513.175781 339.671875 509.066406 344.296875 499.847656 353.539062 C 492.402344 361.003906 486.308594 367.449219 486.308594 367.863281 C 486.308594 368.277344 484.949219 370.714844 483.292969 373.277344 C 479.582031 379.019531 473.988281 390.285156 471.285156 397.46875 C 465.820312 412 464.488281 421.628906 465.019531 442.785156 C 465.28125 453.113281 465.886719 461.261719 466.707031 465.441406 C 468.214844 473.125 473.199219 488.828125 476.390625 495.9375 C 481.6875 507.742188 493.519531 524.996094 503.285156 535.15625 C 506.851562 538.863281 520.898438 550.804688 523.828125 552.617188 C 524.511719 553.039062 527.761719 555.0625 531.046875 557.109375 C 541.914062 563.886719 562.128906 571.839844 574.082031 574.046875 C 577.777344 574.726562 587.78125 575.421875 598.085938 575.710938 C 621.742188 576.371094 628.277344 575.328125 650.710938 567.316406 C 659.878906 564.046875 674.335938 555.949219 683.898438 548.730469 C 690.738281 543.570312 705.578125 528.375 710.933594 521.050781 C 719.28125 509.636719 727.902344 492.175781 731.378906 479.652344 C 732.3125 476.269531 733.277344 472.988281 733.515625 472.355469 C 733.753906 471.71875 734.035156 470.511719 734.144531 469.664062 C 734.25 468.820312 734.914062 463.980469 735.621094 458.914062 C 737.253906 447.144531 736.765625 429.351562 734.5 418.164062 C 732.113281 406.378906 727.519531 393.9375 721.761719 383.644531 C 714.078125 369.914062 709.769531 364.101562 698.535156 352.3125 C 692.9375 346.4375 688.355469 341.191406 688.355469 340.65625 C 688.355469 340.117188 690.125 337.472656 692.285156 334.777344 C 704.09375 320.0625 713.117188 301.511719 718.585938 280.722656 C 720.3125 274.148438 721.707031 257.082031 721.167969 249.109375 C 720.492188 239.179688 717.917969 225.320312 715.160156 216.773438 C 708.429688 195.925781 693.640625 174.246094 677.113281 161.003906 C 658.148438 145.808594 640.097656 137.570312 618.0625 134.050781 C 609.589844 132.695312 592.667969 132.09375 588.484375 132.996094 M 840.855469 133.992188 C 833.609375 135.132812 822.300781 138.152344 813.050781 141.417969 C 805.644531 144.03125 792.253906 150.625 789.125 153.203125 C 788 154.128906 786.558594 155.074219 785.925781 155.304688 C 783.621094 156.140625 772.304688 165.929688 765.105469 173.3125 C 755.582031 183.078125 749.59375 191.078125 743.78125 201.796875 C 737.304688 213.746094 730.679688 230.03125 729.328125 237.328125 C 729.210938 237.960938 728.527344 241.59375 727.808594 245.394531 C 726.167969 254.070312 725.9375 285.585938 727.472656 291.09375 C 728.003906 292.992188 728.503906 295.414062 728.589844 296.46875 C 728.671875 297.527344 729.183594 299.945312 729.726562 301.847656 C 730.269531 303.746094 731.242188 307.203125 731.886719 309.527344 C 741.949219 345.714844 769.007812 377.746094 803.800781 394.648438 C 822.050781 403.515625 841.71875 409.539062 844.601562 407.148438 C 846.371094 405.679688 855.835938 386.53125 855.835938 384.417969 C 855.835938 381.976562 853.808594 380.957031 848.949219 380.957031 C 846.792969 380.957031 843.789062 380.4375 842.273438 379.804688 C 840.757812 379.167969 838.714844 378.652344 837.742188 378.652344 C 833.976562 378.652344 815.929688 371.1875 806.289062 365.640625 C 789.699219 356.097656 772.90625 337.808594 763.96875 319.546875 C 756.667969 304.644531 753.828125 292.558594 753.125 273.425781 C 752.625 259.789062 753.78125 250.320312 757.609375 236.679688 C 759.800781 228.875 767.003906 213.441406 770.570312 208.910156 C 771.398438 207.855469 773.726562 204.753906 775.738281 202.015625 C 780.183594 195.964844 789.929688 186.277344 796.636719 181.242188 C 807.367188 173.183594 819.546875 167.5 834.980469 163.347656 C 843.773438 160.984375 844.238281 160.941406 861.597656 160.925781 C 873.21875 160.914062 880.320312 161.226562 882.339844 161.832031 C 910.550781 170.332031 921.816406 176.128906 935.492188 189.191406 C 943.167969 196.519531 952.203125 207.75 956.382812 215.15625 C 967.3125 234.515625 972.507812 259.558594 969.988281 280.722656 C 967.695312 299.972656 965.363281 307.136719 955.109375 326.421875 C 953.648438 329.167969 948.484375 339.019531 943.628906 348.3125 C 938.773438 357.605469 934.277344 366.042969 933.632812 367.0625 C 932.988281 368.082031 929.613281 374.648438 926.132812 381.65625 C 922.652344 388.664062 918.722656 396.226562 917.398438 398.460938 C 916.074219 400.699219 914.992188 403.003906 914.992188 403.582031 C 914.992188 404.164062 914.730469 404.753906 914.414062 404.894531 C 914.097656 405.035156 912.730469 407.394531 911.371094 410.140625 C 910.011719 412.886719 908.042969 416.6875 906.996094 418.589844 C 905.949219 420.492188 901.136719 429.648438 896.300781 438.945312 C 891.464844 448.238281 882.316406 465.691406 875.96875 477.730469 C 869.621094 489.769531 862.195312 503.941406 859.46875 509.222656 C 856.738281 514.5 851.660156 524.179688 848.175781 530.726562 C 833.550781 558.234375 829.597656 566.179688 830.003906 567.238281 C 830.359375 568.15625 832.636719 568.359375 842.558594 568.359375 C 852.960938 568.355469 855.011719 568.15625 856.992188 566.945312 C 859.417969 565.46875 864.664062 556.105469 885.457031 516.132812 C 892.398438 502.804688 899.371094 489.492188 906.367188 476.195312 C 913.5625 462.515625 920.726562 448.816406 927.855469 435.101562 C 933.910156 423.441406 939.992188 411.792969 946.097656 400.15625 C 975.910156 343.515625 986.925781 321.683594 989.957031 313.265625 C 992.476562 306.253906 995.625 292.359375 996.492188 284.394531 C 998.066406 269.96875 996.144531 241.644531 993.035156 233.488281 C 992.472656 232.011719 991.230469 228.207031 990.277344 225.039062 C 987.519531 215.871094 977.3125 196.292969 970.800781 187.675781 C 964.503906 179.347656 954.375 168.628906 948.410156 163.980469 C 946.296875 162.332031 944.214844 160.621094 943.785156 160.179688 C 943.351562 159.734375 942.460938 159.027344 941.804688 158.601562 C 941.152344 158.179688 938.214844 156.230469 935.285156 154.269531 C 932.355469 152.308594 927.714844 149.609375 924.972656 148.269531 C 922.230469 146.933594 919.316406 145.46875 918.496094 145.019531 C 910.886719 140.835938 891.074219 135.039062 879.671875 133.660156 C 870.925781 132.601562 848.464844 132.796875 840.855469 133.992188 M 198.597656 136.675781 C 192.804688 137.355469 191.34375 138.148438 187.699219 142.59375 L 184.769531 146.171875 L 184.769531 214.671875 L 187.355469 220.1875 C 190.851562 227.644531 201.265625 238.035156 207.046875 239.835938 C 220.757812 244.113281 218.980469 243.960938 228.015625 241.621094 C 238.542969 238.894531 240.496094 237.816406 247.167969 231.050781 C 251.902344 226.25 253.003906 224.609375 254.660156 219.871094 C 255.726562 216.816406 256.597656 213.792969 256.597656 213.148438 C 256.597656 212.117188 264.296875 211.984375 324.640625 211.984375 L 392.683594 211.984375 L 392.140625 213.710938 C 391.839844 214.664062 390.953125 216.644531 390.167969 218.117188 C 389.382812 219.589844 388.738281 221.015625 388.738281 221.285156 C 388.738281 221.761719 348.140625 304.496094 343.367188 313.75 C 338.253906 323.660156 315.753906 368.714844 315.753906 369.046875 C 315.753906 369.378906 261.625 477.78125 258.222656 484.257812 C 257.335938 485.949219 247.941406 504.957031 237.34375 526.503906 C 223.238281 555.183594 218.269531 565.980469 218.789062 566.824219 C 219.730469 568.34375 238.871094 568.890625 242.238281 567.496094 C 244.070312 566.738281 245.484375 564.429688 250.613281 553.839844 C 257.667969 539.269531 259.636719 535.273438 267.097656 520.359375 C 270.054688 514.445312 275.707031 502.863281 279.652344 494.628906 C 283.601562 486.390625 287.253906 479.132812 287.769531 478.5 C 288.285156 477.863281 289.726562 475.273438 290.96875 472.738281 C 311.410156 431.097656 325.011719 403.816406 326.117188 402.242188 C 326.753906 401.328125 327.277344 400.289062 327.277344 399.933594 C 327.277344 399.15625 371.1875 310.449219 383.746094 285.859375 C 384.589844 284.203125 385.652344 282.371094 386.101562 281.789062 C 386.554688 281.203125 387.90625 278.476562 389.105469 275.730469 C 390.308594 272.984375 397.84375 257.433594 405.851562 241.167969 C 413.859375 224.90625 422.621094 207.113281 425.320312 201.632812 C 428.015625 196.152344 430.222656 190.75 430.222656 189.628906 C 430.222656 185.253906 435.640625 185.484375 333.5 185.484375 C 281.695312 185.484375 237.996094 185.765625 236.386719 186.105469 C 232.265625 186.976562 230.496094 191.214844 229.734375 202.03125 C 229.101562 211.03125 228.394531 212.96875 225.117188 214.664062 C 221.945312 216.304688 218.832031 216.105469 215.804688 214.066406 L 213.191406 212.3125 L 212.53125 192.925781 C 212.164062 182.117188 212.164062 171.589844 212.53125 169.140625 L 213.191406 164.746094 L 233.550781 164.167969 C 244.75 163.847656 299.542969 163.796875 355.320312 164.054688 C 468.945312 164.578125 461.492188 164.167969 460.730469 169.855469 C 460.472656 171.753906 444.015625 205.707031 417.101562 259.839844 C 393.332031 307.65625 364.773438 365.09375 353.640625 387.484375 C 342.507812 409.871094 333.070312 428.710938 332.664062 429.34375 C 329.457031 434.359375 264.203125 566.84375 264.613281 567.503906 C 265.382812 568.75 289.480469 568.648438 291.664062 567.390625 C 292.757812 566.757812 313.710938 525.789062 354.402344 444.703125 C 427.164062 299.710938 429.125 295.84375 430.941406 293.453125 C 432.351562 291.597656 432.378906 291.59375 435.707031 292.875 C 437.550781 293.582031 440.078125 294.980469 441.328125 295.980469 L 443.59375 297.800781 L 440.820312 303.855469 C 439.296875 307.183594 422.617188 340.5 403.75 377.882812 C 363.617188 457.421875 316.238281 552.5 312.722656 560.554688 C 311.371094 563.652344 310.449219 566.675781 310.679688 567.273438 C 311.296875 568.878906 334.355469 568.863281 335.691406 567.253906 C 336.691406 566.050781 346.347656 547.304688 351.339844 536.871094 C 353.058594 533.28125 361.792969 515.824219 370.746094 498.085938 C 395.171875 449.691406 418.90625 402.175781 422.546875 394.398438 C 424.324219 390.59375 429.792969 379.707031 434.699219 370.203125 C 444.820312 350.589844 464.933594 309.464844 468.238281 301.613281 L 470.4375 296.386719 L 468.402344 294.347656 C 467.277344 293.226562 460.5625 288.964844 453.480469 284.875 C 443.0625 278.863281 440.554688 277.09375 440.382812 275.625 C 440.261719 274.574219 441.972656 270.417969 444.449219 265.746094 C 446.800781 261.3125 449.464844 255.953125 450.371094 253.84375 C 452.027344 249.96875 471.433594 211.492188 472.445312 210.0625 C 472.746094 209.640625 473.441406 208.085938 474 206.605469 C 474.554688 205.128906 478.082031 197.746094 481.839844 190.199219 L 488.671875 176.476562 L 488.671875 167.609375 C 488.671875 162.5 488.332031 158.402344 487.871094 157.941406 C 487.433594 157.503906 487.074219 156.710938 487.074219 156.183594 C 487.074219 154.429688 482.449219 148.339844 478.476562 144.867188 C 476.320312 142.980469 472.292969 140.289062 469.523438 138.882812 L 464.492188 136.328125 L 333.847656 136.234375 C 261.996094 136.183594 201.132812 136.382812 198.597656 136.679688 M 584.308594 162.035156 C 557.148438 167.285156 532.808594 183.28125 519.578125 204.578125 C 502.070312 232.757812 499.53125 263.550781 512.238281 293.5 C 514.324219 298.414062 517.722656 304.980469 519.785156 308.09375 C 523.453125 313.617188 532.605469 323.320312 542.152344 331.800781 C 550.511719 339.226562 550.039062 341.304688 537.460938 352.507812 C 508.699219 378.125 496.628906 396.996094 492.808594 422.320312 C 491.683594 429.804688 491.199219 458.558594 492.1875 459.542969 C 492.464844 459.820312 493.625 463.765625 494.773438 468.3125 C 499.574219 487.355469 508.210938 501.933594 524.101562 517.820312 C 532.265625 525.980469 539.660156 531.269531 550.539062 536.71875 C 561.128906 542.027344 571.628906 545.453125 582.933594 547.285156 C 589.195312 548.300781 594.042969 548.484375 606.367188 548.171875 C 626.710938 547.648438 635.007812 545.699219 651.285156 537.609375 C 668.222656 529.191406 680.433594 519.234375 690.816406 505.371094 C 698.445312 495.1875 704.933594 481.394531 708.871094 466.976562 C 710.710938 460.238281 710.890625 458.195312 711.203125 440.125 C 711.417969 427.886719 711.246094 419.554688 710.75 417.851562 C 710.3125 416.359375 709.230469 412.066406 708.34375 408.316406 C 706.679688 401.273438 700.824219 385.394531 698.394531 381.339844 C 689.28125 366.117188 682.410156 357.398438 669.578125 344.765625 C 664.695312 339.960938 660.699219 335.472656 660.699219 334.796875 C 660.699219 333.347656 662.460938 330.832031 668.824219 323.191406 C 676.925781 313.460938 683.082031 303.011719 687.65625 291.21875 C 693.410156 276.398438 694.613281 267.691406 693.683594 247.699219 C 693.164062 236.5 692.871094 234.675781 690.367188 227.113281 C 682.0625 202.027344 665.121094 182.042969 642.464844 170.609375 C 626.007812 162.304688 601.558594 158.699219 584.308594 162.035156 M 850.84375 179.433594 C 843.558594 180.484375 835.75 182.378906 831.675781 184.082031 C 822.441406 187.949219 820.007812 189.195312 813.59375 193.359375 C 786.828125 210.734375 772.097656 238.398438 772.097656 271.277344 C 772.097656 286.550781 775.578125 301.433594 781.773438 312.671875 C 787.371094 322.816406 791.117188 327.777344 799.257812 335.835938 C 810.085938 346.550781 822.078125 353.777344 837.828125 359.082031 C 850.136719 363.226562 864.207031 365.339844 867.074219 363.472656 C 868.195312 362.742188 879.652344 339.863281 879.652344 338.351562 C 879.652344 336.851562 878.121094 336.589844 866.207031 336.066406 C 852.96875 335.484375 843.910156 333.546875 836.226562 329.65625 C 817.226562 320.035156 805.472656 306.726562 800.339844 289.027344 C 798.855469 283.90625 798.605469 281.28125 798.636719 271.125 C 798.679688 257.195312 799.511719 253.4375 805.234375 241.253906 C 808.523438 234.253906 809.835938 232.402344 815.941406 226.179688 C 828.726562 213.144531 837.617188 208.746094 855.453125 206.640625 C 861.101562 205.976562 871.8125 206.417969 873.121094 207.371094 C 873.542969 207.679688 875.445312 208.132812 877.347656 208.382812 C 889.402344 209.957031 905.792969 221.410156 914.953125 234.65625 C 927.222656 252.398438 929.492188 271.269531 921.773438 291.328125 C 917.976562 301.199219 889.894531 356.464844 877.402344 378.652344 C 876.09375 380.976562 873.792969 385.296875 872.292969 388.253906 C 870.789062 391.210938 868.386719 395.703125 866.949219 398.238281 C 865.511719 400.769531 862.382812 406.648438 859.992188 411.292969 C 857.605469 415.941406 845.113281 439.789062 832.234375 464.289062 C 819.925781 487.707031 807.628906 511.132812 795.351562 534.566406 C 787.949219 548.71875 780.902344 561.953125 779.695312 563.972656 C 778.117188 566.621094 777.773438 567.757812 778.476562 568.027344 C 779.011719 568.230469 785.472656 568.304688 792.839844 568.1875 L 806.226562 567.976562 L 808.347656 564.816406 C 809.515625 563.078125 815.183594 552.710938 820.945312 541.777344 C 840.324219 504.988281 855.953125 475.167969 866.378906 455.074219 C 872.078125 444.089844 878.90625 431.128906 881.550781 426.269531 C 886.066406 417.988281 913.136719 365.882812 930.851562 331.382812 C 940.160156 313.25 945.019531 302.511719 948.207031 293.011719 C 950.390625 286.503906 950.546875 285.226562 950.90625 271.074219 L 951.289062 256.050781 L 948.085938 245.40625 C 941.101562 222.199219 929.175781 205.441406 911.335938 193.757812 C 902.742188 188.132812 893.605469 183.964844 884.527344 181.53125 C 878.160156 179.828125 875.078125 179.472656 865.054688 179.300781 C 858.503906 179.191406 852.109375 179.25 850.84375 179.433594 M 584.15625 181.210938 C 570.054688 184.523438 556.222656 192.464844 545.460938 203.433594 C 533.671875 215.449219 527.695312 226.210938 524.3125 241.511719 C 522.3125 250.542969 523.09375 267.4375 525.925781 276.5 C 530.273438 290.40625 536.859375 300.941406 547.558594 311.121094 C 556.300781 319.441406 564.746094 325.152344 594.628906 342.960938 C 626.0625 361.695312 632.988281 366.457031 643.535156 376.59375 C 658.113281 390.605469 662.101562 396.667969 667.703125 413.339844 C 669.761719 419.460938 670.171875 421.972656 670.5 430.496094 C 670.941406 441.875 669.804688 452.367188 667.507812 458.121094 C 662.273438 471.234375 657.742188 478.234375 649.050781 486.632812 C 642.5 492.964844 638.933594 495.34375 630.753906 498.84375 C 621.019531 503.011719 614.292969 504.21875 601.542969 504.085938 C 591.414062 503.980469 589.710938 503.75 582.742188 501.578125 C 564.820312 495.988281 550.152344 483.867188 542.445312 468.273438 C 537.148438 457.5625 535.945312 452.15625 535.902344 438.945312 C 535.871094 428.707031 535.992188 427.824219 538.46875 420.511719 C 543.109375 406.800781 547.621094 399.5625 557.84375 389.4375 C 564.570312 382.769531 571.53125 377.5 581.796875 371.296875 C 585.9375 368.792969 590.253906 366.003906 591.394531 365.09375 C 593.414062 363.484375 593.433594 363.402344 592.070312 361.894531 C 591.300781 361.046875 585.867188 357.886719 579.996094 354.875 L 569.320312 349.402344 L 566.804688 350.695312 C 557.488281 355.484375 542 368.183594 533.699219 377.84375 C 520.679688 392.996094 514.246094 404.902344 510.746094 420.316406 C 508.816406 428.816406 508.46875 446.425781 510.050781 455.34375 C 513.101562 472.496094 525.082031 493.980469 537.78125 505.0625 C 551.941406 517.421875 574.21875 528.324219 588.726562 529.992188 C 599.675781 531.25 614.546875 530.90625 621.679688 529.230469 C 650.027344 522.5625 673.226562 504.925781 686.332031 480.074219 C 693.3125 466.84375 697.566406 449.953125 697.566406 435.488281 C 697.566406 427.390625 695.140625 412.683594 692.519531 404.882812 C 689.863281 396.984375 683.1875 383.410156 678.488281 376.347656 C 673.003906 368.109375 662.628906 357.363281 653.140625 350.089844 C 643.808594 342.9375 616.769531 324.925781 609.078125 320.738281 C 574.832031 302.089844 564.816406 294.832031 556.730469 282.796875 C 550.988281 274.242188 548.453125 261.816406 550.039062 249.929688 C 551.15625 241.511719 553.105469 236.363281 557.835938 229.289062 C 564.980469 218.613281 574.589844 211.933594 586.683594 209.242188 C 593.75 207.671875 610.394531 208.089844 616.371094 209.992188 C 628.035156 213.703125 638.988281 223.183594 644.480469 234.324219 C 649.726562 244.960938 651.347656 257.46875 648.726562 267.054688 C 648.054688 269.503906 647.226562 272.636719 646.882812 274.019531 C 645.894531 278 640.535156 286.78125 632.246094 298.003906 C 628.035156 303.707031 624.679688 308.894531 624.785156 309.527344 C 624.960938 310.550781 642.519531 321.761719 644.011719 321.800781 C 644.847656 321.820312 651.175781 314.878906 656.816406 307.75 C 665.699219 296.523438 673.210938 279.460938 675.382812 265.578125 C 676.503906 258.410156 675.789062 247.246094 673.667969 238.871094 C 667.4375 214.226562 652.8125 196.640625 629.5 185.75 C 621.105469 181.832031 615.042969 180.628906 601.160156 180.128906 C 592.292969 179.808594 589.308594 180 584.15625 181.210938 M 795.046875 622.5 C 779.726562 628.324219 769.675781 636.386719 763.488281 647.808594 C 759.777344 654.660156 759.023438 657.648438 758.511719 667.578125 C 757.925781 678.871094 758.902344 684.082031 763.320312 693.316406 C 771.359375 710.109375 787.695312 719.855469 807.820312 719.863281 C 820.339844 719.867188 830.777344 716.121094 839.503906 708.488281 C 843.957031 704.59375 852.078125 693.003906 853.546875 688.445312 C 854.070312 686.820312 854.769531 685.144531 855.101562 684.722656 C 856.222656 683.285156 856.703125 671.691406 855.9375 664.613281 C 853.980469 646.578125 842.03125 630.8125 825.324219 624.234375 C 819.8125 622.0625 818.5 621.863281 808.589844 621.660156 C 800.847656 621.503906 797.050781 621.738281 795.046875 622.5 M 249.433594 623.375 C 243.34375 625.308594 234.507812 631.84375 230.964844 637.035156 C 228.039062 641.324219 227.847656 641.945312 227.546875 648.285156 C 227.246094 654.511719 227.382812 655.285156 229.394531 658.984375 C 234.160156 667.730469 244.519531 674.363281 260.625 678.964844 C 270.890625 681.898438 278.304688 685.175781 279.933594 687.503906 C 282.589844 691.296875 280.800781 697.4375 276.351562 699.820312 C 275.449219 700.300781 271.929688 701.308594 268.535156 702.058594 L 262.359375 703.421875 L 256.035156 701.515625 C 250.988281 700 248.671875 698.765625 244.605469 695.429688 C 241.796875 693.132812 239.054688 691.25 238.511719 691.25 C 237.128906 691.25 227.816406 699.414062 226.597656 701.695312 C 225.675781 703.410156 225.8125 703.792969 228.226562 706.300781 C 231.847656 710.058594 241.375 716.339844 244.457031 717 C 245.855469 717.296875 247.386719 717.855469 247.863281 718.238281 C 248.335938 718.617188 251.644531 719.308594 255.207031 719.765625 C 269.367188 721.59375 287.148438 716.542969 293.765625 708.816406 C 298.332031 703.484375 299.84375 699.414062 300.230469 691.445312 C 300.542969 684.960938 300.398438 683.984375 298.558594 680.226562 C 294.917969 672.785156 284.855469 666.417969 271.195312 662.910156 C 261.421875 660.398438 252.339844 657.34375 250.476562 655.9375 C 248.164062 654.195312 247.136719 649.109375 248.347656 645.402344 C 249.8125 640.914062 254.3125 638.984375 263.605469 638.855469 C 271.542969 638.746094 274.171875 639.570312 282.757812 644.871094 C 285.199219 646.375 287.8125 647.488281 288.5625 647.34375 C 290.335938 647.003906 296.375 639.589844 297.042969 636.941406 C 297.46875 635.238281 297.117188 634.519531 294.9375 632.679688 C 291.460938 629.738281 283.945312 625.335938 281.347656 624.714844 C 280.199219 624.441406 278.792969 623.84375 278.214844 623.390625 C 276.445312 621.992188 253.828125 621.976562 249.433594 623.375 M 909.613281 622.839844 C 908.980469 623.28125 907.726562 623.644531 906.828125 623.648438 C 905.925781 623.65625 904.796875 624.136719 904.3125 624.71875 C 903.828125 625.304688 902.46875 625.972656 901.289062 626.207031 C 898.230469 626.820312 888.441406 637.296875 887.390625 641.082031 C 886.359375 644.792969 886.324219 655.179688 887.332031 657.832031 C 889.792969 664.300781 902.980469 674.582031 911.535156 676.699219 C 923.082031 679.554688 936.019531 684.59375 938.027344 687.015625 C 939.210938 688.433594 940.007812 694.324219 939.109375 694.976562 C 938.734375 695.25 938.054688 696.164062 937.601562 697.011719 C 936.449219 699.167969 932.464844 700.976562 925.773438 702.382812 C 921.75 703.226562 919.457031 703.367188 918.089844 702.847656 C 917.019531 702.4375 914.167969 701.558594 911.757812 700.886719 C 908.398438 699.957031 906.300781 698.683594 902.820312 695.460938 C 900.316406 693.144531 897.613281 691.25 896.816406 691.25 C 895.101562 691.25 885.03125 701.128906 885.03125 702.8125 C 885.03125 704.808594 887.234375 707.230469 892.414062 710.925781 C 900.1875 716.46875 906.816406 718.839844 916.066406 719.382812 C 931.78125 720.308594 942.972656 716.925781 950.921875 708.84375 C 956.933594 702.738281 958.199219 699.589844 958.152344 690.890625 C 958.109375 682.84375 957.171875 680.238281 952.269531 674.558594 C 947.503906 669.03125 934.707031 663.761719 916.527344 659.84375 C 909.625 658.351562 904.300781 652.414062 905.398438 647.421875 C 906.039062 644.515625 910.34375 640.839844 914.40625 639.730469 C 923.175781 637.335938 931.890625 639.058594 940.71875 644.925781 C 942.824219 646.324219 945.117188 647.472656 945.8125 647.472656 C 947.285156 647.472656 951.996094 642.488281 953.769531 639.0625 C 955.582031 635.554688 953.644531 632.882812 946.078125 628.460938 C 937.90625 623.683594 933.988281 622.695312 921.90625 622.355469 C 914.945312 622.160156 910.332031 622.34375 909.613281 622.839844 M 341.046875 625.390625 C 339.746094 627.453125 339.546875 628.679688 339.914062 632.480469 C 340.632812 640.003906 340.902344 640.128906 357.144531 640.414062 L 370.839844 640.652344 L 371.335938 649.246094 C 371.605469 653.972656 371.832031 670.519531 371.832031 686.015625 C 371.835938 702.242188 372.152344 715.019531 372.578125 716.140625 C 372.984375 717.210938 374.121094 718.289062 375.101562 718.535156 C 377.546875 719.148438 388.714844 717.691406 389.789062 716.621094 C 390.402344 716.007812 390.773438 704.707031 391.042969 678.347656 L 391.425781 640.941406 L 405.351562 640.457031 C 414.667969 640.128906 420.003906 639.617188 421.484375 638.910156 C 423.570312 637.914062 423.707031 637.554688 423.917969 632.4375 C 424.105469 627.875 423.882812 626.691406 422.515625 624.957031 L 420.894531 622.894531 L 342.621094 622.894531 Z M 458.542969 624.359375 L 456.730469 625.828125 L 456.730469 655.660156 C 456.730469 684.285156 456.796875 685.734375 458.457031 691.566406 C 459.410156 694.910156 461.109375 699.21875 462.234375 701.140625 C 465.179688 706.164062 474.125 714.726562 477.628906 715.875 C 479.230469 716.398438 481.320312 717.332031 482.265625 717.949219 C 483.214844 718.566406 484.46875 718.886719 485.054688 718.660156 C 485.640625 718.4375 486.476562 718.609375 486.910156 719.042969 C 488.355469 720.488281 497.226562 720.636719 504.746094 719.34375 C 518.800781 716.929688 529.855469 709.476562 534.824219 699.070312 C 536.75 695.03125 537.304688 692.628906 537.847656 685.964844 C 538.753906 674.792969 537.375 628.089844 536.058594 625.332031 C 535.140625 623.410156 534.699219 623.261719 529.328125 623.046875 C 526.171875 622.921875 522.8125 623.011719 521.871094 623.25 C 518.332031 624.136719 518.210938 625.203125 517.804688 659.4375 L 517.421875 691.757812 L 515.246094 694.605469 C 514.050781 696.171875 511.65625 698.390625 509.925781 699.535156 C 507.023438 701.453125 506.167969 701.617188 499.039062 701.617188 C 488.925781 701.617188 485.039062 700.199219 480.9375 695.007812 C 478.902344 692.433594 477.722656 689.980469 477.199219 687.21875 C 476.777344 685 476.21875 670.261719 475.960938 654.464844 C 475.6875 637.882812 475.164062 625.144531 474.722656 624.320312 C 474.066406 623.09375 473 622.894531 467.160156 622.894531 C 461.605469 622.894531 460.023438 623.164062 458.542969 624.359375 M 579.609375 624.472656 C 578.164062 626.070312 578.113281 627.597656 578.113281 670.566406 C 578.113281 712.222656 578.199219 715.089844 579.484375 716.375 C 580.738281 717.628906 582.75 717.75 602.535156 717.75 C 621.300781 717.75 624.824219 717.5625 628.816406 716.347656 C 638.734375 713.339844 648.945312 705.496094 654.996094 696.242188 C 656.65625 693.707031 658.269531 691.519531 658.585938 691.378906 C 658.902344 691.238281 659.164062 690.441406 659.164062 689.613281 C 659.164062 688.78125 659.753906 686.996094 660.472656 685.644531 C 661.476562 683.761719 661.855469 680.617188 662.09375 672.195312 C 662.433594 660.320312 661.824219 657.375 657.035156 647.855469 C 654.410156 642.632812 645.199219 633.3125 639.535156 630.144531 C 629.25 624.386719 624.636719 623.570312 599.96875 623.144531 C 581.433594 622.824219 581.082031 622.847656 579.609375 624.472656 M 703.613281 624.363281 L 701.800781 625.832031 L 701.800781 670.710938 C 701.800781 707.621094 701.988281 715.816406 702.855469 716.863281 C 703.695312 717.875 705.339844 718.132812 710.96875 718.132812 C 721.417969 718.132812 720.90625 718.957031 721.511719 701.105469 C 721.789062 692.9375 722.046875 672.71875 722.089844 656.167969 L 722.160156 626.078125 L 720.136719 624.484375 C 717.277344 622.238281 706.339844 622.15625 703.613281 624.363281 M 800.515625 640.148438 C 794.5 641.46875 790.914062 643.363281 786.765625 647.402344 C 771.507812 662.269531 776.585938 693.253906 795.332031 699.664062 C 798.304688 700.679688 803.070312 701.476562 807.824219 701.757812 C 816.089844 702.246094 815.554688 702.402344 826.554688 696.324219 C 827.238281 695.949219 829.0625 694.082031 830.617188 692.175781 C 838.917969 681.988281 839.039062 661.433594 830.863281 650.359375 C 827.5625 645.890625 823.789062 643.441406 816.339844 640.941406 C 810.15625 638.867188 807.074219 638.710938 800.515625 640.148438 M 598.472656 671.175781 L 598.472656 701.234375 L 603.273438 701.214844 C 605.914062 701.203125 611.332031 700.878906 615.3125 700.492188 C 627.277344 699.335938 635.4375 694.140625 640.351562 684.550781 C 642.480469 680.398438 642.628906 679.546875 642.636719 671.28125 C 642.644531 662.875 642.527344 662.203125 640.164062 657.375 C 637.207031 651.335938 632.351562 646.585938 626.292969 643.816406 C 622.402344 642.035156 620.785156 641.796875 610.21875 641.476562 L 598.472656 641.121094 Z M 598.472656 671.175781 " fill-opacity="1" fill-rule="evenodd"/></svg>