<svg xmlns="http://www.w3.org/2000/svg" width="1000" height="1000"><path d="M531 148c2.8125 2.5 2.8125 2.5 5 5l2.4375 2.5625c8.53524949 10.47998988 10.87379934 22.27091415 10.82078552 35.37884521l.0111385 3.23760057c.0099408 3.56247099.00583694 7.12478468.00181621 10.68726516.00438934 2.56148443.00969225 5.12296743.01583863 7.68444824.01148546 5.5083087.0171513 11.01657508.01788139 16.52489471.00132974 7.97813906.01647759 15.95620848.03549517 23.93432287.03080718 12.96447255.0549874 25.92894688.07287466 38.89344355l.00325054 2.34861067c.01181418 8.64225843.02202105 17.28451756.03044086 25.92677996.00307395 3.13216147.00616275 6.26432294.00927735 9.39648437l.00231921 2.34205482c.0131071 12.91302868.03778139 25.82600691.07142419 38.7389982.02022483 7.95203558.03058842 15.90396304.02801079 23.85602453-.0011628 6.10164885.01305793 12.20317454.03280925 18.30478952.00558189 2.4940047.00610106 4.98802691.0010624 7.48203277-.05635709 27.38849295-.05635709 27.38849295 13.18541908 50.74777985C574.87391375 481.67654986 588.17141854 484.94342538 604 484c13.6793384-1.75071793 23.81244593-6.87654312 32.36328125-17.73046875 7.86484139-11.41984709 9.00174729-22.69591102 9.26367187-36.14038086C645.8270777 422.0649842 646.67999047 415.44179006 650 408l1.0234375-2.41796875c5.00845273-10.31883346 14.27485823-17.82991891 24.4140625-22.76953125 12.16781206-3.85808675 25.57619963-4.80679182 37.5625.1875l2.03125.7734375c10.80757268 4.67470405 19.77036468 14.61212379 24.28125 25.3515625 2.84846823 7.3315005 2.85588504 14.56291022 2.90869141 22.32348633l.03486633 3.47744751c.03671942 3.80200539.06639168 7.60402668.09550476 11.40609741.01729125 1.99381174.03458549 3.98762348.05222929 5.98143214.05561521 6.29253544.10627837 12.58509752.1538254 18.87769872.04313515 5.69927533.0916184 11.39847253.14550781 17.09765625.51314416 54.47419138.51314416 54.47419138-.0546875 74.47290039l-.0977478 3.75630188C741.91661765 584.03588729 737.71499667 598.41527993 725 611c-9.41713096 7.56163694-22.06418308 10.97980587-34 10-15.18745523-2.41705115-25.65208686-8.62034034-35.875-20.0625-5.60265818-7.74485102-7.98850288-15.81647072-8.7565918-25.27954102-1.29133514-15.84978826-5.40982147-28.39077036-17.3059082-39.47045898-9.59246958-7.98448335-19.76355948-9.53799607-31.9375-9.5l-3.10546875-.04882812C581.56147832 526.63075697 572.38725083 530.1805048 563.1875 538.5625c-16.2025229 18.0542398-14.33908828 38.62534768-14.23754883 61.49438477.00684075 2.41443752.0131693 4.82887654.01902771 7.24331665.01326884 5.17536614.02939268 10.35071267.04755211 15.52606392.02839179 8.1916822.04492439 16.38336973.05947304 24.57508659.00512259 2.81136805.01029677 5.62273601.01546955 8.43410396l.00389707 2.12820422c.01469212 7.96939219.03118534 15.93878007.04891646 23.90816606l.00489316 2.20410543c.02655398 11.79500473.06432663 23.5899527.10529541 35.38491495.0418213 12.14473757.0681848 24.28944516.08120796 36.43424779.00779765 6.80506314.02293946 13.6099473.05667133 20.41493564.03113863 6.39822754.04352147 12.79622049.04178237 19.19452095.00268667 2.34084095.01219735 4.68168611.02922631 7.02246666.12285722 17.65996796-.7817037 32.72768259-13.30711365 46.50032616C527.00782202 857.5946216 515.08345432 862.92636512 502.5 863.3125c-1.50197711-.07011024-3.00254187-.17659624-4.5-.3125l-2.73046875-.2109375c-12.03995209-1.4314342-22.77456924-6.88118207-31.0078125-15.78125-2.6586165-3.53563853-4.80085817-7.14323274-6.82421875-11.0703125l-1.01513672-1.96459961c-3.8118352-8.00646144-3.56982502-16.53810657-3.52915954-25.24867248l.00168699-3.02082152c.0030215-3.32051298.01319561-6.64096471.02332216-9.96146303.00355858-2.389129.00664389-4.77825874.0092926-7.16738892.00653995-5.13670294.01609259-10.27338835.02789498-15.41008186.01704124-7.44408395.02654897-14.88816398.03387873-22.33226316.01193207-12.10252179.02687247-24.20503735.04514463-36.30755122l.0033034-2.19216405c.01559129-10.25294567.03418584-20.5058837.05399787-30.75882197l.00422217-2.18573273.00422281-2.18303925c.02310747-12.05080981.03837687-24.10161472.04733657-36.15244328.00530436-6.75431161.01448186-13.50857386.0333882-20.26286227.01756302-6.3587301.02576948-12.71740494.02702713-19.07615852.00213364-2.32343825.00767703-4.64687647.01703072-6.97029686.41531117-30.71066189.41531117-30.71066189-14.80698395-56.55173302-10.0591622-9.11662357-21.20792782-11.71351681-34.48046875-11.50390625l-3.10351562-.00976562C386.55002141 526.77813284 376.13056504 530.73613805 366 541c-6.75504772 7.43773872-10.13974035 18.0090461-10.11352539 27.96661377l.00021362 2.95507812.01565552 3.20819092.00442505 3.40710449c.00380435 2.44172861.00991919 4.88345445.01806641 7.32517243.01278705 3.87804464.01928652 7.75605495.0241394 11.63411713.01239873 8.9478114.03394867 17.89559236.05622864 26.84338378.02191088 8.8282122.03975175 17.65640901.05073547 26.48464203.00642062 3.79566982.01893428 7.59128708.03170776 11.38694001.10998407 50.78251045.10998407 50.78251045-14.47827148 66.27313232C333.76785554 735.86910692 323.95185652 741.38008359 313 742l-2.03515625.1171875C296.8925323 742.56392755 282.51678195 737.547409 272 728c-10.91903536-13.34800996-13.3041197-25.31206278-13.26069641-42.18745422-.00302234-1.66136112-.00691224-3.32272084-.01159257-4.98407811-.01027813-4.55554675-.00809863-9.11101478-.0038194-13.66656798.00246756-4.91696144-.00654736-9.83390394-.01403749-14.75085843-.01274839-9.62932572-.0145405-19.25862356-.01219974-28.8879563.00178325-7.82771246.00003337-15.65541646-.00422444-23.48312791l-.00180361-3.37639609a3249692 3249692 0 0 0-.00364237-6.79066705c-.01087619-21.22735816-.00871274-42.45470042-.00261516-63.68205947.00516861-19.41429243-.00608467-38.82853468-.02509822-58.24281718-.01937793-19.93937994-.02763443-39.87873614-.02387674-59.81812557.00191218-11.19249221-.00057723-22.38494172-.01471454-33.57742625-.01191423-9.52884993-.01331823-19.05763086-.00120984-28.58648173.0058885-4.86007769.00698887-9.72002919-.0050024-14.58009847-.01085922-4.45307154-.00775492-8.90591151.00626169-13.35897222.00264682-1.60694449.00028086-3.21390714-.00773587-4.82083381-.07655786-16.4969031 3.12531492-29.04313331 14.47975711-41.39357921 11.14660361-10.59840999 24.24282619-13.17053075 39.1875-13.0234375C325.70762401 259.55064254 337.08079743 267.28764686 346 277c9.22360887 12.22301551 10.45983596 25.90339972 10.35302734 40.78540039.00083354 1.41937908.00305814 2.8387579.00654602 4.25813294.00490168 3.02605193.00095024 6.05190832-.01001358 9.0779438-.01653928 4.79767586-.00781319 9.59511398.00484085 14.39278984.02993835 12.77174721.02867751 25.54344818.00974715 38.31521266-.01237413 8.41274957-.01036412 16.82522491.0183878 25.23794318.01512259 4.75681629.00791942 9.51288138-.01671017 14.26964968-.01015562 2.97146631.00071254 5.94259714.01711488 8.91402424.00502868 2.00723073-.01452687 4.01447754-.03517723 6.02160835C356.45882019 450.70584407 360.035657 462.086303 369 471c12.88799724 11.08644923 25.28082351 13.74555971 42 13 3.42508037-.41345277 6.67597158-1.08443428 10-2l2.0390625-.51953125C432.70478496 478.49603253 440.84415455 470.49662285 446 462c8.38465232-16.54630857 7.28336188-35.25723315 7.21118164-53.29980469-.00220534-2.41635576-.00350756-4.83271249-.00398254-7.24906921-.00329534-5.84394019-.01564882-11.68780971-.03190034-17.53172699-.01835163-6.82147252-.02428875-13.64293976-.02932526-20.46443307-.00922383-12.17754978-.02663867-24.35507241-.05002623-36.53260276l-.00422217-2.20147303-.00422888-2.20419356c-.01978261-10.32017867-.03761233-20.64035825-.05307239-30.96054435l-.00330561-2.2024227c-.01805594-12.14141429-.03200273-24.28283133-.04386604-36.42425314-.00823184-8.13210908-.02238279-16.26418198-.04097254-24.39627385-.01067458-5.06248013-.01723779-10.12495996-.02280056-15.18744803-.00345752-2.33963474-.00865725-4.6792677-.01576805-7.01889419-.1214715-40.8802553-.1214715-40.8802553 14.34619522-55.62373543C484.98513921 135.56184741 512.10769523 134.26647956 531 148"/></svg>