<svg xmlns="http://www.w3.org/2000/svg" fill="currentColor" viewBox="0 0 24 24"><path fill-rule="evenodd" d="m3.132 6.019 3.176 3.157c.948.941 1.873 1.861 2.054 2.043l.33.331-.219.221-4.237 4.309-3.11 3.169-.172.176h7.485l.712-.724 4.612-4.691 1.68-1.71a643 643 0 0 1 3.455-3.51 991 991 0 0 0 4.006-4.069l.141-.146h-7.484l-1.619 1.648-1.619 1.649-.225-.22c-.124-.121-.871-.862-1.661-1.648L9.001 4.575h-7.32Zm15.903 6.005a3.58 3.58 0 0 0-3.157 3.006 4.6 4.6 0 0 0-.024.876 3.58 3.58 0 0 0 1.351 2.479c.311.242.701.45 1.073.573.399.132.718.182 1.162.182.533 0 1.019-.112 1.515-.347a3.62 3.62 0 0 0 1.76-1.867 3.58 3.58 0 0 0-.438-3.476 3.57 3.57 0 0 0-3.242-1.426m-1.98 3.546v.66h.461c.5 0 .552-.007.693-.083a.73.73 0 0 0 .275-.303c.046-.096.048-.111.048-.274 0-.167-.001-.177-.051-.278a.68.68 0 0 0-.479-.367 6 6 0 0 0-.514-.015h-.433Zm1.958-.581-.293.648-.266.589c-.006.015.052.019.257.019h.265l.078-.18h.573l.046.086.045.087.275.004.275.004-.219-.424-.342-.665-.124-.24-.267-.004-.267-.004Zm1.762-.063a.8.8 0 0 0-.501.294.6.6 0 0 0-.057.609c.266.54 1.161.532 1.416-.013.162-.347-.05-.745-.463-.866a1.1 1.1 0 0 0-.395-.024m-3.24.644v.24h.182c.204 0 .261-.017.317-.096.026-.036.033-.067.033-.139 0-.112-.03-.161-.127-.211-.057-.029-.09-.034-.236-.034h-.169Zm3.246-.203c-.243.122-.147.443.132.443.104 0 .169-.025.227-.086a.215.215 0 0 0-.003-.304.3.3 0 0 0-.356-.053m-1.49.184-.056.12-.02.049h.24l-.06-.12a1 1 0 0 0-.065-.12z"/></svg>